LowLeg_Impact_6ms_states
version=1
nRows=6
nColumns=103
inDegrees=yes

# SIMM Motion File Header:
name LowLeg_Impact_6ms_states
datacolumns 103
datarows 6
otherdata 1
range 0.05872221 0.06046279
endheader
time	Pin_1	hip_flexion_r	hip_adduction_r	hip_rotation_r	knee_angle_r	ankle_angle_r	subtalar_angle_r	mtp_angle_r	Pin_1_u	hip_flexion_r_u	hip_adduction_r_u	hip_rotation_r_u	knee_angle_r_u	ankle_angle_r_u	subtalar_angle_r_u	mtp_angle_r_u	glut_med1_r.activation	glut_med1_r.fiber_length	glut_med2_r.activation	glut_med2_r.fiber_length	glut_med3_r.activation	glut_med3_r.fiber_length	glut_min1_r.activation	glut_min1_r.fiber_length	glut_min2_r.activation	glut_min2_r.fiber_length	glut_min3_r.activation	glut_min3_r.fiber_length	semimem_r.activation	semimem_r.fiber_length	semiten_r.activation	semiten_r.fiber_length	bifemlh_r.activation	bifemlh_r.fiber_length	bifemsh_r.activation	bifemsh_r.fiber_length	sar_r.activation	sar_r.fiber_length	add_long_r.activation	add_long_r.fiber_length	add_brev_r.activation	add_brev_r.fiber_length	add_mag1_r.activation	add_mag1_r.fiber_length	add_mag2_r.activation	add_mag2_r.fiber_length	add_mag3_r.activation	add_mag3_r.fiber_length	tfl_r.activation	tfl_r.fiber_length	pect_r.activation	pect_r.fiber_length	grac_r.activation	grac_r.fiber_length	glut_max1_r.activation	glut_max1_r.fiber_length	glut_max2_r.activation	glut_max2_r.fiber_length	glut_max3_r.activation	glut_max3_r.fiber_length	iliacus_r.activation	iliacus_r.fiber_length	psoas_r.activation	psoas_r.fiber_length	quad_fem_r.activation	quad_fem_r.fiber_length	gem_r.activation	gem_r.fiber_length	peri_r.activation	peri_r.fiber_length	rect_fem_r.activation	rect_fem_r.fiber_length	vas_med_r.activation	vas_med_r.fiber_length	vas_int_r.activation	vas_int_r.fiber_length	vas_lat_r.activation	vas_lat_r.fiber_length	med_gas_r.activation	med_gas_r.fiber_length	lat_gas_r.activation	lat_gas_r.fiber_length	soleus_r.activation	soleus_r.fiber_length	tib_post_r.activation	tib_post_r.fiber_length	flex_dig_r.activation	flex_dig_r.fiber_length	flex_hal_r.activation	flex_hal_r.fiber_length	tib_ant_r.activation	tib_ant_r.fiber_length	per_brev_r.activation	per_brev_r.fiber_length	per_long_r.activation	per_long_r.fiber_length	per_tert_r.activation	per_tert_r.fiber_length	ext_dig_r.activation	ext_dig_r.fiber_length	ext_hal_r.activation	ext_hal_r.fiber_length
      0.05872221	    -11.27919023	     60.00000000	     -0.00000000	     -0.00000000	    -90.00000000	     34.25924357	     -4.46916327	    -30.81341745	   -106.85578140	     -0.00000000	      0.00000000	      0.00000000	      0.00000000	    448.97610767	    -24.57506968	   -376.84371474	      0.02768757	      0.05024214	      0.02768757	      0.09501090	      0.02768757	      0.08228114	      0.02768757	      0.06455155	      0.02768757	      0.05741052	      0.02768757	      0.04178935	      0.02768757	      0.07425203	      0.02768757	      0.20744503	      0.02768757	      0.11009342	      0.02768757	      0.12860822	      0.02768757	      0.37820959	      0.02768757	      0.08175055	      0.02768757	      0.11739195	      0.02768757	      0.08029834	      0.02768757	      0.11225483	      0.02768757	      0.14964276	      0.02768757	      0.08332233	      0.02768757	      0.08367965	      0.02768757	      0.28839701	      0.02768757	      0.11233176	      0.02768757	      0.12895771	      0.02768757	      0.16000023	      0.02768757	      0.08367965	      0.02768757	      0.08367965	      0.02768757	      0.06370190	      0.02768757	      0.02878606	      0.02768757	      0.03108443	      0.02768757	      0.11237504	      0.02768757	      0.10654380	      0.02768757	      0.10680952	      0.02768757	      0.10277281	      0.02768757	      0.05655198	      0.02768757	      0.06082935	      0.02768757	      0.06467846	      0.02768757	      0.03840940	      0.02768757	      0.03401116	      0.02768757	      0.04363970	      0.02768757	      0.08380182	      0.02768757	      0.04890364	      0.02768757	      0.05087475	      0.02768757	      0.07343455	      0.02768757	      0.08335324	      0.02768757	      0.08730729
      0.05911907	    -11.32147590	     60.00000000	     -0.00000000	     -0.00000000	    -90.00000000	     34.43687128	     -4.47873343	    -30.96239622	   -106.24614457	     -0.00000000	      0.00000000	      0.00000000	      0.00000000	    446.19784233	    -23.65637449	   -373.95171885	      0.02759280	      0.05018465	      0.02759280	      0.09501141	      0.02759280	      0.08228135	      0.02759280	      0.06455125	      0.02759280	      0.05741087	      0.02759280	      0.04178986	      0.02759280	      0.07416608	      0.02759280	      0.20744871	      0.02759280	      0.11009872	      0.02759280	      0.12860922	      0.02759280	      0.37821096	      0.02759280	      0.08175021	      0.02759280	      0.11739223	      0.02759280	      0.08029169	      0.02759280	      0.11225672	      0.02759280	      0.14964513	      0.02759280	      0.08322026	      0.02759280	      0.08357221	      0.02759280	      0.28839882	      0.02759280	      0.11233364	      0.02759280	      0.12895968	      0.02759280	      0.16000174	      0.02759280	      0.08357221	      0.02759280	      0.08357221	      0.02759280	      0.06370207	      0.02759280	      0.02878632	      0.02759280	      0.03108497	      0.02759280	      0.11238036	      0.02759280	      0.10654466	      0.02759280	      0.10681030	      0.02759280	      0.10277374	      0.02759280	      0.05653437	      0.02759280	      0.06082809	      0.02759280	      0.06475659	      0.02759280	      0.03842771	      0.02759280	      0.03400730	      0.02759280	      0.04365698	      0.02759280	      0.08369653	      0.02759280	      0.04889923	      0.02759280	      0.05087958	      0.02759280	      0.07334968	      0.02759280	      0.08324365	      0.02759280	      0.08718803
      0.05943902	    -11.35538899	     60.00000000	     -0.00000000	     -0.00000000	    -90.00000000	     34.57927715	     -4.48618505	    -31.08167216	   -105.74127987	     -0.00000000	      0.00000000	      0.00000000	      0.00000000	    443.97636788	    -22.92419339	   -371.63835404	      0.02751679	      0.05013832	      0.02751679	      0.09501181	      0.02751679	      0.08228152	      0.02751679	      0.06455109	      0.02751679	      0.05741116	      0.02751679	      0.04179027	      0.02751679	      0.07409680	      0.02751679	      0.20745167	      0.02751679	      0.11010298	      0.02751679	      0.12861002	      0.02751679	      0.37821206	      0.02751679	      0.08175004	      0.02751679	      0.11739246	      0.02751679	      0.08028691	      0.02751679	      0.11225824	      0.02751679	      0.14964704	      0.02751679	      0.08313799	      0.02751679	      0.08348561	      0.02751679	      0.28840028	      0.02751679	      0.11233514	      0.02751679	      0.12896126	      0.02751679	      0.16000296	      0.02751679	      0.08348561	      0.02751679	      0.08348561	      0.02751679	      0.06370221	      0.02751679	      0.02878653	      0.02751679	      0.03108540	      0.02751679	      0.11238464	      0.02751679	      0.10654535	      0.02751679	      0.10681092	      0.02751679	      0.10277449	      0.02751679	      0.05652201	      0.02751679	      0.06082789	      0.02751679	      0.06481898	      0.02751679	      0.03844228	      0.02751679	      0.03400423	      0.02751679	      0.04367169	      0.02751679	      0.08361166	      0.02751679	      0.04889582	      0.02751679	      0.05088370	      0.02751679	      0.07328126	      0.02751679	      0.08315532	      0.02751679	      0.08709191
      0.05975897	    -11.38914014	     60.00000000	     -0.00000000	     -0.00000000	    -90.00000000	     34.72097285	     -4.49340336	    -31.20020892	   -105.23711282	     -0.00000000	      0.00000000	      0.00000000	      0.00000000	    441.75380493	    -22.19676277	   -369.32687017	      0.02744112	      0.05009200	      0.02744112	      0.09501222	      0.02744112	      0.08228168	      0.02744112	      0.06455100	      0.02744112	      0.05741144	      0.02744112	      0.04179069	      0.02744112	      0.07402753	      0.02744112	      0.20745462	      0.02744112	      0.11010723	      0.02744112	      0.12861082	      0.02744112	      0.37821315	      0.02744112	      0.08174996	      0.02744112	      0.11739269	      0.02744112	      0.08028259	      0.02744112	      0.11225975	      0.02744112	      0.14964894	      0.02744112	      0.08305574	      0.02744112	      0.08339903	      0.02744112	      0.28840173	      0.02744112	      0.11233665	      0.02744112	      0.12896283	      0.02744112	      0.16000417	      0.02744112	      0.08339903	      0.02744112	      0.08339903	      0.02744112	      0.06370234	      0.02744112	      0.02878674	      0.02744112	      0.03108584	      0.02744112	      0.11238890	      0.02744112	      0.10654603	      0.02744112	      0.10681153	      0.02744112	      0.10277523	      0.02744112	      0.05651115	      0.02744112	      0.06082818	      0.02744112	      0.06488086	      0.02744112	      0.03845668	      0.02744112	      0.03400121	      0.02744112	      0.04368706	      0.02744112	      0.08352681	      0.02744112	      0.04889253	      0.02744112	      0.05088803	      0.02744112	      0.07321286	      0.02744112	      0.08306701	      0.02744112	      0.08699580
      0.06007892	    -11.42273113	     60.00000000	     -0.00000000	     -0.00000000	    -90.00000000	     34.86195431	     -4.50038804	    -31.31800322	   -104.73860378	     -0.00000000	      0.00000000	      0.00000000	      0.00000000	    439.51213784	    -21.46277183	   -366.99701340	      0.02736580	      0.05004569	      0.02736580	      0.09501262	      0.02736580	      0.08228185	      0.02736580	      0.06455096	      0.02736580	      0.05741172	      0.02736580	      0.04179110	      0.02736580	      0.07395828	      0.02736580	      0.20745756	      0.02736580	      0.11011147	      0.02736580	      0.12861162	      0.02736580	      0.37821425	      0.02736580	      0.08174995	      0.02736580	      0.11739292	      0.02736580	      0.08027868	      0.02736580	      0.11226126	      0.02736580	      0.14965083	      0.02736580	      0.08297351	      0.02736580	      0.08331246	      0.02736580	      0.28840318	      0.02736580	      0.11233814	      0.02736580	      0.12896440	      0.02736580	      0.16000538	      0.02736580	      0.08331246	      0.02736580	      0.08331246	      0.02736580	      0.06370248	      0.02736580	      0.02878695	      0.02736580	      0.03108629	      0.02736580	      0.11239315	      0.02736580	      0.10654672	      0.02736580	      0.10681215	      0.02736580	      0.10277596	      0.02736580	      0.05650165	      0.02736580	      0.06082890	      0.02736580	      0.06494220	      0.02736580	      0.03847092	      0.02736580	      0.03399822	      0.02736580	      0.04370300	      0.02736580	      0.08344198	      0.02736580	      0.04888937	      0.02736580	      0.05089257	      0.02736580	      0.07314448	      0.02736580	      0.08297871	      0.02736580	      0.08689972
      0.06046279	    -11.46282174	     60.00000000	     -0.00000000	     -0.00000000	    -90.00000000	     35.03014944	     -4.50845603	    -31.45834143	   -104.13864063	     -0.00000000	      0.00000000	      0.00000000	      0.00000000	    436.80762270	    -20.57347500	   -364.18505932	      0.02727587	      0.04999014	      0.02727587	      0.09501311	      0.02727587	      0.08228205	      0.02727587	      0.06455096	      0.02727587	      0.05741206	      0.02727587	      0.04179159	      0.02727587	      0.07387522	      0.02727587	      0.20746107	      0.02727587	      0.11011654	      0.02727587	      0.12861258	      0.02727587	      0.37821555	      0.02727587	      0.08175000	      0.02727587	      0.11739319	      0.02727587	      0.08027448	      0.02727587	      0.11226307	      0.02727587	      0.14965308	      0.02727587	      0.08287487	      0.02727587	      0.08320863	      0.02727587	      0.28840492	      0.02727587	      0.11233994	      0.02727587	      0.12896628	      0.02727587	      0.16000682	      0.02727587	      0.08320863	      0.02727587	      0.08320863	      0.02727587	      0.06370264	      0.02727587	      0.02878720	      0.02727587	      0.03108682	      0.02727587	      0.11239824	      0.02727587	      0.10654754	      0.02727587	      0.10681288	      0.02727587	      0.10277685	      0.02727587	      0.05649189	      0.02727587	      0.06083047	      0.02727587	      0.06501512	      0.02727587	      0.03848779	      0.02727587	      0.03399469	      0.02727587	      0.04372280	      0.02727587	      0.08334022	      0.02727587	      0.04888574	      0.02727587	      0.05089832	      0.02727587	      0.07306245	      0.02727587	      0.08287280	      0.02727587	      0.08678446
